<svg width="1440" height="594" viewBox="0 0 1440 594" fill="none" xmlns="http://www.w3.org/2000/svg">
<path d="M1518.99 454.418C1500.66 464.838 1403.07 489.767 1282.53 454.417C1155.55 417.182 1052.52 262.577 899.601 199.997C713.136 123.689 528.17 104.152 291.714 199.997C69.2698 290.164 -45.7229 399.857 -120.209 454.417" stroke="white" stroke-opacity="0.04" stroke-width="200"/>
<path d="M1509.34 469.731C1490.43 479.345 1391.54 500.02 1273.18 459.497C1148.49 416.812 1054.46 257.941 905.321 188.82C723.466 104.537 539.851 77.0184 298.19 162.512C70.8479 242.939 -50.296 347.519 -127.82 398.788" stroke="white" stroke-opacity="0.05" stroke-width="220"/>
<path d="M1527.3 410.755C1508.99 421.711 1410.35 449.513 1285.96 417.75C1154.93 384.292 1043.83 232.821 885.353 174.8C692.107 104.051 502.572 89.9964 264.916 192.784C41.3416 289.482 -71.8122 402.516 -145.741 459.249" stroke="white" stroke-opacity="0.05" stroke-width="220"/>
</svg>
