<svg width="1440" height="595" viewBox="0 0 1440 595" fill="none" xmlns="http://www.w3.org/2000/svg">
<path d="M-126.984 139.654C-108.651 129.211 -11.0521 104.229 109.516 139.654C236.516 176.969 339.568 331.903 492.516 394.616C679.016 471.087 864.016 490.666 1100.52 394.616C1323 304.258 1438.02 194.33 1512.52 139.654" stroke="white" stroke-opacity="0.04" stroke-width="200"/>
<path d="M-117.332 124.308C-98.4234 114.674 0.484951 93.9547 118.874 134.564C243.579 177.339 337.631 336.549 486.797 405.817C668.686 490.281 852.335 517.858 1094.04 432.182C1321.43 351.584 1442.59 246.78 1520.13 195.402" stroke="white" stroke-opacity="0.05" stroke-width="220"/>
<path d="M-135.297 183.41C-116.986 172.43 -18.3294 144.569 106.086 176.4C237.138 209.929 348.257 361.722 506.767 419.867C700.049 490.767 889.619 504.852 1127.32 401.845C1350.94 304.941 1464.11 191.666 1538.05 134.812" stroke="white" stroke-opacity="0.05" stroke-width="220"/>
</svg>
