<svg width="152" height="152" viewBox="0 0 152 152" fill="none" xmlns="http://www.w3.org/2000/svg">
<path d="M142 76C142 112.451 112.451 142 76 142C39.5492 142 10 112.451 10 76C10 39.5492 39.5492 10 76 10C112.451 10 142 39.5492 142 76Z" fill="#D9D9D9"/>
<path d="M76 147C115.212 147 147 115.212 147 76C147 36.7878 115.212 5 76 5C36.7878 5 5 36.7878 5 76C5 115.212 36.7878 147 76 147Z" stroke="white" stroke-opacity="0.2" stroke-width="10"/>
<path d="M76.7761 71.8251C80.2447 71.8251 83.6355 70.7965 86.5196 68.8695C89.4036 66.9424 91.6515 64.2034 92.9789 60.9987C94.3063 57.7941 94.6536 54.2679 93.9769 50.8659C93.3002 47.4639 91.6299 44.3389 89.1772 41.8862C86.7245 39.4335 83.5995 37.7632 80.1975 37.0865C76.7955 36.4098 73.2693 36.7571 70.0647 38.0845C66.86 39.4119 64.121 41.6598 62.1939 44.5438C60.2669 47.4279 59.2383 50.8187 59.2383 54.2873C59.2383 58.9386 61.086 63.3994 64.375 66.6884C67.664 69.9774 72.1248 71.8251 76.7761 71.8251Z" fill="#959595"/>
<path d="M103.083 115.669C104.246 115.669 105.361 115.207 106.183 114.385C107.005 113.563 107.467 112.448 107.467 111.285C107.467 103.145 104.234 95.3387 98.478 89.583C92.7223 83.8273 84.9159 80.5938 76.7761 80.5938C68.6363 80.5938 60.8299 83.8273 55.0742 89.583C49.3185 95.3387 46.085 103.145 46.085 111.285C46.085 112.448 46.5469 113.563 47.3691 114.385C48.1914 115.207 49.3066 115.669 50.4694 115.669H103.083Z" fill="#959595"/>
</svg>
